<svg width="1231" height="462" viewBox="0 0 1231 462" fill="none" xmlns="http://www.w3.org/2000/svg">
<g clip-path="url(#clip0_2333_80)">
<path d="M342.418 211.4C342.418 172.509 310.782 140.981 271.758 140.981C232.734 140.981 201.099 172.509 201.099 211.4V281.609H342.418V211.4ZM271.405 185.468C257.057 185.468 245.384 197.101 245.384 211.4C245.384 214.894 242.543 217.725 239.037 217.725C235.531 217.725 232.691 214.894 232.691 211.4C232.691 190.125 250.058 172.817 271.405 172.817C274.911 172.817 277.752 175.648 277.752 179.142C277.752 182.636 274.911 185.468 271.405 185.468Z" fill="#007BE5"/>
<path d="M356.83 294.259H188.166C176.745 294.259 167.25 307.412 167.25 318.798V337.269H377.113V318.798C377.113 307.412 368.248 294.259 356.83 294.259Z" fill="#007BE5"/>
<path d="M271.758 127.909C275.264 127.909 278.105 125.078 278.105 121.584V92.0674C278.105 88.5734 275.264 85.7423 271.758 85.7423C268.252 85.7423 265.411 88.5734 265.411 92.0674V121.584C265.411 125.078 268.252 127.909 271.758 127.909Z" fill="#007BE5"/>
<path d="M221.995 136.718C223.172 138.747 225.304 139.882 227.497 139.882C228.574 139.882 229.666 139.608 230.665 139.033C233.7 137.287 234.74 133.418 232.988 130.393L218.179 104.831C216.426 101.805 212.543 100.769 209.509 102.516C206.474 104.262 205.434 108.131 207.186 111.156L221.995 136.718Z" fill="#007BE5"/>
<path d="M166.096 156.841L191.745 171.6C192.746 172.175 193.836 172.448 194.913 172.448C197.106 172.448 199.24 171.314 200.415 169.285C202.167 166.26 201.127 162.391 198.092 160.645L172.442 145.886C169.404 144.14 165.524 145.175 163.773 148.201C162.019 151.225 163.06 155.094 166.096 156.841Z" fill="#007BE5"/>
<path d="M313.698 139.033C314.698 139.608 315.789 139.881 316.865 139.881C319.058 139.881 321.192 138.747 322.367 136.718L337.176 111.155C338.929 108.13 337.889 104.262 334.853 102.515C331.816 100.769 327.934 101.804 326.184 104.83L311.375 130.393C309.621 133.418 310.662 137.286 313.698 139.033Z" fill="#007BE5"/>
<path d="M349.451 172.448C350.527 172.448 351.619 172.175 352.618 171.6L378.268 156.841C381.303 155.095 382.343 151.226 380.591 148.201C378.837 145.175 374.955 144.14 371.921 145.886L346.271 160.645C343.236 162.391 342.196 166.26 343.948 169.285C345.124 171.314 347.257 172.448 349.451 172.448Z" fill="#007BE5"/>
<path d="M271.464 414C376.862 414 462.929 331.511 462.929 229C462.929 126.489 376.862 44 271.464 44C166.067 44 80 126.489 80 229C80 331.511 166.067 414 271.464 414Z" stroke="#007BE5" stroke-width="20"/>
<path d="M497.16 171L529.4 52.6H564.52L596.76 171H573.48L545.4 63.32H548.04L520.2 171H497.16ZM516.68 139.08L521.24 119H572.6L577.16 139.08H516.68ZM605.724 171V52.6H629.324V149.96H675.884V171H605.724ZM676.379 171L708.619 52.6H743.739L775.979 171H752.699L724.619 63.32H727.259L699.419 171H676.379ZM695.899 139.08L700.459 119H751.819L756.379 139.08H695.899ZM784.943 171V54.6C788.196 53.9067 791.529 53.2933 794.943 52.76C798.409 52.2267 801.983 51.8267 805.663 51.56C809.396 51.2933 813.289 51.16 817.343 51.16C833.129 51.16 844.943 54.3067 852.783 60.6C860.623 66.8933 864.543 76.4133 864.543 89.16C864.543 97.48 862.649 104.467 858.863 110.12C855.129 115.773 849.823 120.04 842.943 122.92C836.063 125.8 827.929 127.24 818.543 127.24C816.356 127.24 814.489 127.213 812.943 127.16C811.396 127.107 809.823 127.027 808.223 126.92V171H784.943ZM847.983 171L813.663 116.6H838.383L873.343 171H847.983ZM818.383 108.52C826.329 108.52 832.276 107.027 836.223 104.04C840.169 101 842.143 96.04 842.143 89.16C842.143 84.7333 841.316 81.08 839.663 78.2C838.063 75.32 835.636 73.1867 832.383 71.8C829.183 70.36 825.156 69.64 820.303 69.64C817.796 69.64 815.609 69.7467 813.743 69.96C811.876 70.12 810.036 70.36 808.223 70.68V108.04C809.449 108.147 810.569 108.253 811.583 108.36C812.649 108.413 813.716 108.467 814.783 108.52C815.849 108.52 817.049 108.52 818.383 108.52ZM883.388 171V52.6H912.348L942.668 130.76H940.188L969.628 52.6H998.668V171H976.668V75.24H980.908L950.428 153.88H931.548L900.268 75.24H905.388V171H883.388ZM1007.94 171L1040.18 52.6H1075.3L1107.54 171H1084.26L1056.18 63.32H1058.82L1030.98 171H1007.94ZM1027.46 139.08L1032.02 119H1083.38L1087.94 139.08H1027.46ZM497.27 414L551.675 214.2H610.94L665.345 414H626.06L578.675 232.29H583.13L536.15 414H497.27ZM530.21 360.135L537.905 326.25H624.575L632.27 360.135H530.21ZM668.115 414V391.59L752.355 242.28L752.895 249.57H669.465V214.2H799.875V236.61L715.635 385.92L714.96 378.63H801.225V414H668.115ZM894.571 416.565C877.921 416.565 864.106 413.865 853.126 408.465C842.236 402.975 834.091 394.38 828.691 382.68C823.291 370.89 820.591 355.635 820.591 336.915V214.2H860.551V341.505C860.551 356.355 863.386 366.975 869.056 373.365C874.726 379.665 883.231 382.815 894.571 382.815C905.911 382.815 914.371 379.665 919.951 373.365C925.621 366.975 928.456 356.355 928.456 341.505V214.2H967.471V336.915C967.471 355.635 964.816 370.89 959.506 382.68C954.286 394.38 946.276 402.975 935.476 408.465C924.676 413.865 911.041 416.565 894.571 416.565ZM996.614 414V214.2H1036.44V378.495H1115.01V414H996.614Z" fill="#007BE5"/>
</g>
<defs>
<clipPath id="clip0_2333_80">
<rect width="1231" height="462" fill="white"/>
</clipPath>
</defs>
</svg>
